<svg width="234" height="205" viewBox="0 0 234 205" fill="none" xmlns="http://www.w3.org/2000/svg">
<path d="M220.027 0L130.106 157.934L117.218 135.253L117.224 135.242L168.287 48.0563L183.653 21.8245L0.0112305 21.1533L12.1436 0H220.027Z" fill="#FEEE00"/>
<path d="M234 21.9251L128.629 203.965L38.6345 47.5082L65.3828 47.6201L115.137 135.226V135.237L129.323 160.205L130.094 161.58L221.666 0.889313L234 21.9251Z" fill="#FEEE00"/>
<path d="M66.44 45.8246L35.519 45.696L127.08 204.877H127.074L102.697 205L0 22.9543L180.515 23.6199L167.264 46.2441L66.44 45.8246Z" fill="#FEEE00"/>
<path d="M116.301 61.7148V75.1327L102.597 84.2663V70.8484L116.301 61.7148Z" fill="#FEEE00"/>
<path d="M130.844 85.5751L117 94.8038L103.156 85.5751L117 76.3465L130.844 85.5751Z" fill="#FEEE00"/>
<path d="M131.403 70.8484V84.2663L117.699 75.1327V61.7148L131.403 70.8484Z" fill="#FEEE00"/>
</svg>
