<svg width="506" height="116" viewBox="0 0 506 116" fill="none" xmlns="http://www.w3.org/2000/svg">
<path d="M309.991 88.3525L332.55 35.252H354.815L316.51 114.5H296.734L283.185 35.252H304.132L309.991 88.3525Z" stroke="white" stroke-width="3"/>
<path d="M385.211 82.9326L375.616 91.2822L371.588 114.5H350.934L370.416 2H391.144L380.45 63.084L384.479 58.7627L407.989 35.252H434.503L399.859 69.3096L421.905 114.5H399.273L385.211 82.9326Z" stroke="white" stroke-width="3"/>
<path d="M462.115 35.1787L460.357 44.5537C466.705 37.1807 474.396 33.5918 483.429 33.7871C490.899 33.9336 496.417 36.668 499.981 41.9902C503.546 47.3125 504.84 54.6855 503.863 64.1094L495.514 114.5H474.859L483.355 63.8896C483.6 61.9854 483.648 60.252 483.502 58.6895C482.867 53.709 479.742 51.1455 474.127 50.999C468.707 50.8037 463.849 53.3184 459.552 58.543L449.664 114.5H429.01L442.779 35.252L462.115 35.1787Z" stroke="white" stroke-width="3"/>
<path d="M45.5908 92.1611C46.3721 88.2549 43.6621 85.4229 37.4609 83.665L30.7959 81.9805C15.0244 77.6348 7.3584 69.9688 7.79785 58.9824C8.04199 51.5117 11.3379 45.4326 17.6855 40.7451C24.082 36.0088 31.7725 33.6895 40.7568 33.7871C49.6924 33.8848 56.9189 36.2529 62.4365 40.8916C67.9541 45.5303 70.7617 51.707 70.8594 59.4219L50.3516 59.3486C50.4492 52.5615 47.0801 49.1191 40.2441 49.0215C37.0215 49.0215 34.2139 49.8271 31.8213 51.4385C29.4775 53.0498 28.0371 55.2227 27.5 57.957C26.7676 61.8633 29.7217 64.6221 36.3623 66.2334L39.292 66.8926C46.0303 68.5039 51.1816 70.3594 54.7461 72.459C58.3105 74.5098 61.0449 77.0732 62.9492 80.1494C64.9023 83.2256 65.8057 86.9121 65.6592 91.209C65.5127 96.2383 63.877 100.633 60.752 104.393C57.6758 108.152 53.4277 111.058 48.0078 113.108C42.6367 115.159 36.9727 116.111 31.0156 115.965C22.2266 115.867 14.9023 113.353 9.04297 108.421C3.18359 103.44 0.205078 97.0195 0.107422 89.1582L19.5898 89.3047C19.7852 96.873 23.8379 100.706 31.748 100.804C35.5566 100.804 38.6816 100.022 41.123 98.46C43.6133 96.8975 45.1025 94.7979 45.5908 92.1611Z" fill="white"/>
<path d="M121.104 114.5C120.469 112.498 120.2 110.105 120.298 107.322C114.341 113.279 107.603 116.16 100.083 115.965C93.1494 115.867 87.3877 113.621 82.7979 109.227C78.2568 104.783 76.1328 99.3145 76.4258 92.8203C76.7676 84.1777 80.3809 77.5615 87.2656 72.9717C94.1992 68.333 103.477 66.0137 115.098 66.0137L124.766 66.1602L125.791 61.3994C126.084 59.7881 126.157 58.25 126.011 56.7852C125.767 54.4902 124.888 52.708 123.374 51.4385C121.909 50.1201 119.956 49.4365 117.515 49.3877C114.292 49.29 111.558 50.0957 109.312 51.8047C107.065 53.4648 105.625 55.8818 104.99 59.0557L84.2627 59.1289C84.6045 51.5605 88.0713 45.4326 94.6631 40.7451C101.304 36.0088 109.482 33.6895 119.199 33.7871C128.184 33.9824 135.215 36.668 140.293 41.8438C145.371 46.9707 147.495 53.5869 146.665 61.6924L140.586 99.6318L140.22 104.319C140.122 107.786 140.537 110.716 141.465 113.108L141.392 114.5H121.104ZM105.21 99.9248C111.167 100.12 116.367 97.5322 120.811 92.1611L123.374 78.4648L116.196 78.3916C108.579 78.5869 103.086 80.9062 99.7168 85.3496C98.4961 86.9609 97.7393 88.9385 97.4463 91.2822C97.0557 93.9189 97.5928 96.0186 99.0576 97.5811C100.571 99.0947 102.622 99.876 105.21 99.9248Z" fill="white"/>
<path d="M187.021 35.1787L185.337 44.1875C191.733 37.0586 199.473 33.5918 208.555 33.7871C213.438 33.8848 217.49 35.0078 220.713 37.1562C223.936 39.3047 226.108 42.21 227.231 45.8721C234.214 37.6201 242.417 33.5918 251.841 33.7871C259.116 33.9336 264.585 36.4238 268.247 41.2578C271.958 46.0918 273.521 53.0742 272.935 62.2051L272.788 64.0361L264.365 114.5H243.638L252.061 63.8896C252.256 62.083 252.329 60.3984 252.28 58.8359C251.938 53.709 249.009 51.0723 243.491 50.9258C237.827 50.9258 232.969 53.9531 228.916 60.0078L228.696 61.6924L219.468 114.5H198.813L207.236 64.0361C207.432 62.2295 207.505 60.5449 207.456 58.9824C207.114 53.8066 204.209 51.1455 198.74 50.999C193.516 50.8525 188.804 53.3184 184.604 58.3965L174.717 114.5H154.062L167.759 35.252L187.021 35.1787Z" fill="white"/>
</svg>
